<svg id="SvgjsSvg1001" width="288" height="288" xmlns="http://www.w3.org/2000/svg" version="1.1" xmlns:xlink="http://www.w3.org/1999/xlink" xmlns:svgjs="http://svgjs.com/svgjs"><defs id="SvgjsDefs1002"></defs><g id="SvgjsG1008"><svg xmlns="http://www.w3.org/2000/svg" xmlns:xlink="http://www.w3.org/1999/xlink" id="Layer_1" x="0" y="0" enable-background="new 0 0 120 120" version="1.1" viewBox="0 0 120 120" xml:space="preserve" width="288" height="288"><path fill="#fcefee" d="M93.22 53.46c-.09 3.92-1.21 7.12-3.67 9.79-.42.46-.89.88-1.41 1.23-2.09 1.4-4 .74-4.79-1.65-.25-.75-.42-1.53-.63-2.29-1.55-5.58-5.15-9.06-10.78-10.43-1.72-.42-3.69-.66-4.13-2.73-.43-2.05 1.08-3.34 2.52-4.49 4.58-3.65 9.6-4.26 14.83-1.74C90.39 43.66 92.97 48.02 93.22 53.46zM40.59 38.85c3.96.04 7.29 1.55 9.96 4.43 2.22 2.39 1.45 5.03-1.76 5.68-6.83 1.38-10.87 5.41-12.31 12.21-.7 3.3-3.05 4.51-6.01 1.58-3.89-3.84-4.98-8.57-3.47-13.79 1.54-5.34 5.28-8.44 10.56-9.81.55-.14 1.11-.24 1.67-.3C39.67 38.81 40.13 38.85 40.59 38.85zM64.24 62.23h-10.6c-1.87 0-2.95 1.92-1.84 3.28l6.14 7.53c.39.48.96.71 1.54.78C60.05 69.47 62.2 65.32 64.24 62.23z" class="color2a2a2a svgShape"></path><path fill="#fcefee" d="M53.63,62.2h12.28c1.87,0,2.95,1.92,1.84,3.28l-6.14,7.53c-0.91,1.12-2.77,1.12-3.68,0l-6.14-7.53
		C50.68,64.12,51.76,62.2,53.63,62.2z" class="color2a2a2a svgShape"></path><defs><path id="SVGID_1_" d="M57.53,100.66c1.47-3.36,1.66-7.87,0.22-12.41c-1.44-4.54-4.2-8.11-7.33-10.01
				c-1.47,3.36-1.66,7.87-0.22,12.41C51.64,95.19,54.4,98.76,57.53,100.66" fill="#000000" class="color000 svgShape"></path></defs><linearGradient id="SVGID_00000168812550933988934360000017915867719491286177_" x1="49.874" x2="58.083" y1="93.555" y2="85.347" gradientUnits="userSpaceOnUse"><stop offset="0" stop-color="#72193d" class="stopColor19723a svgShape"></stop><stop offset="1" stop-color="#fccde2" class="stopColorfdf166 svgShape"></stop></linearGradient><use fill="url(#SVGID_00000168812550933988934360000017915867719491286177_)" fill-rule="evenodd" clip-rule="evenodd" overflow="visible" xlink:href="#SVGID_1_"></use><clipPath id="SVGID_00000067219604487912297400000015236806540155493523_"><use overflow="visible" xlink:href="#SVGID_1_"></use></clipPath><linearGradient id="SVGID_00000042733252276479491420000010836591534248723125_" x1="45.4" x2="62.557" y1="98.03" y2="80.872" gradientUnits="userSpaceOnUse"><stop offset="0" stop-color="#72193d" class="stopColor19723a svgShape"></stop><stop offset="1" stop-color="#fccde2" class="stopColorfdf166 svgShape"></stop></linearGradient><polygon fill="url(#SVGID_00000042733252276479491420000010836591534248723125_)" points="45.35 97.98 58.23 100.81 62.61 80.92 49.72 78.09" clip-path="url(#SVGID_00000067219604487912297400000015236806540155493523_)"></polygon><g fill="#000000" class="color000 svgShape"><defs><path id="SVGID_00000114053926998512749620000007982239423617884855_" d="M58.97,105.33c3.41-1.12,6.83-3.93,9.2-7.95
				c2.37-4.02,3.18-8.37,2.51-11.9c-3.41,1.12-6.83,3.93-9.2,7.95C59.11,97.45,58.3,101.8,58.97,105.33" fill="#000000" class="color000 svgShape"></path></defs><linearGradient id="SVGID_00000145036590729643141240000015911641822277966269_" x1="56.933" x2="72.713" y1="103.296" y2="87.517" gradientUnits="userSpaceOnUse"><stop offset="0" stop-color="#72193d" class="stopColor19723a svgShape"></stop><stop offset="1" stop-color="#fccde2" class="stopColorfdf166 svgShape"></stop></linearGradient><use fill="url(#SVGID_00000145036590729643141240000015911641822277966269_)" fill-rule="evenodd" clip-rule="evenodd" overflow="visible" xlink:href="#SVGID_00000114053926998512749620000007982239423617884855_"></use><clipPath id="SVGID_00000003080002405298533490000000166980027798485166_"><use overflow="visible" xlink:href="#SVGID_00000114053926998512749620000007982239423617884855_"></use></clipPath><linearGradient id="SVGID_00000120541363729889616690000012667396100565807241_" x1="56.153" x2="73.493" y1="104.077" y2="86.736" gradientUnits="userSpaceOnUse"><stop offset="0" stop-color="#72193d" class="stopColor19723a svgShape"></stop><stop offset="1" stop-color="#fccde2" class="stopColorfdf166 svgShape"></stop></linearGradient><polygon fill="url(#SVGID_00000120541363729889616690000012667396100565807241_)" points="56.16 104.08 64.18 107.65 73.49 86.73 65.47 83.16" clip-path="url(#SVGID_00000003080002405298533490000000166980027798485166_)"></polygon></g><path fill="#fcefee" d="M101.5 45.84l15.17-3.34c-.01-.08-.01-.15-.03-.24-.75-3.6-2.17-6.92-3.83-10.16-1.21-2.37-.98-3.31 1.08-4.99 5.93-4.83 6.48-16.17 1.06-21.66-6.13-6.2-15.57-6.24-22.04-.09-2.85 2.71-2.92 2.72-6.49 1.02C79 2.86 71.22.79 62.97.55c-.11 0-.19.01-.29.01v16.09c.08 0 .13.02.22.02 9.97.22 18.76 3.56 26.16 10.34 5.69 5.21 9.54 11.66 12.41 18.74C101.47 45.78 101.49 45.81 101.5 45.84zM33.29 6.38c-3.3 1.58-3.53 1.57-6.22-1.03-3.03-2.93-6.64-4.56-10.84-4.69C7.65.38 1 7.09 1.2 15.85c.1 4.26 1.15 8.22 4.69 11.07 2.21 1.78 2.41 2.66 1.1 5.24-1.61 3.14-2.93 6.39-3.71 9.85-.02.07-.01.12-.03.18l15.1 3.32c.27-.45.56-1.07.94-1.94 4.16-9.3 10.04-17.13 19.15-22.15 5.62-3.1 11.68-4.72 18.09-4.87V.5C48.34.74 40.64 2.86 33.29 6.38z" class="color2a2a2a svgShape"></path><path fill="#c5e3f6" d="M118.45,48.76l-14.8,3.25c0.48,2.58,0.74,5.22,0.74,7.94c0,22.96-17.33,41.82-39.62,44.32
		c-0.19,0.02-0.35,0.1-0.53,0.16v14.95c0.29,0.09,0.6,0.15,0.92,0.12c30.44-2.75,54.36-28.4,54.36-59.54
		C119.52,56.12,119.14,52.38,118.45,48.76z" class="color65c6bb svgShape"></path><path fill="#fc5c9c" d="M55.01,104.37c-0.21-0.09-0.43-0.18-0.67-0.21c-21.86-2.9-38.73-21.58-38.73-44.23c0-2.66,0.26-5.26,0.71-7.79
		c0.03-0.14,0-0.28,0-0.42l-14.7-3.23c-0.01,0.04-0.04,0.07-0.05,0.11c-0.71,3.67-1.09,7.46-1.09,11.33
		c0,30.8,23.42,56.23,53.38,59.44c0.41,0.04,0.79-0.05,1.14-0.2V104.37z" class="color48803c svgShape"></path></svg></g></svg>